<?xml version="1.0" encoding="utf-8"?>
<svg version="1.1" id="Logo" xmlns="http://www.w3.org/2000/svg" x="0px" y="0px" viewBox="0 0 512 212" style="enable-background:new 0 0 512 212;">
	<style type="text/css">
	        .st0 {
		        fill: #00679A;
	        }
	        .st1 {
		        fill: #329967;
	        }
	        .st2 {
		        fill: #991914;
	        }
	</style>
	<g id="Logotipo">
		<g id="Grupo_de_usuários">
			<g id="Grupo">
				<path id="Grupo_G" d="M243.7606659,12.7275009h4.4199219v8.483778c-1.1343536,0.8553524-2.4485779,1.5124683-3.942688,1.9713497
					c-1.4941254,0.4588795-2.9992523,0.6864834-4.5117188,0.6864834c-2.1695862,0-4.1225739-0.4625511-5.8553009-1.3876534
					c-1.7327423-0.9251022-3.0910187-2.2099667-4.078537-3.8545933c-0.9838409-1.640955-1.4794312-3.4985027-1.4794312-5.5726414
					c0-2.070467,0.4955902-3.9280148,1.4794312-5.5689702c0.9875183-1.6446266,2.3568115-2.929491,4.1078949-3.8545935
					c1.7547607-0.9251027,3.7261047-1.3876538,5.9140472-1.3876538c1.8355255,0,3.4985046,0.3083675,4.9926147,0.9251025
					c1.490448,0.616735,2.7459412,1.5124693,3.7628174,2.6872025l-3.1056976,2.8670835
					c-1.4941101-1.5712056-3.2966003-2.3568087-5.4074402-2.3568087c-1.3362579,0-2.5220032,0.2789989-3.5572357,0.8333263
					c-1.0352325,0.5579982-1.842865,1.3472719-2.41922,2.3604794c-0.576355,1.0168791-0.8663635,2.1805992-0.8663635,3.494832
					c0,1.2958775,0.2900085,2.4522562,0.8663635,3.4654636c0.576355,1.0168781,1.3803101,1.809824,2.4045258,2.375164
					c1.024231,0.5690117,2.195282,0.8516808,3.5095215,0.8516808c1.394989,0,2.6504974-0.2973537,3.7664948-0.8957329V12.7275009z"
					/>
				<path id="Grupo_r" d="M259.0395203,7.7972922c0.9471436-0.3964725,2.0374451-0.5983796,3.2709045-0.5983796v4.3024607
					c-0.5176086-0.0367107-0.8663635-0.0587368-1.0462341-0.0587368c-1.3325806,0-2.3788452,0.3744469-3.1350708,1.119668
					c-0.7599182,0.7488928-1.138031,1.8685598-1.138031,3.3626738v7.5880432h-4.6585541V7.4412012h4.449295V9.559392
					C257.3398438,8.7848024,258.0924072,8.1974363,259.0395203,7.7972922z"/>
				<path id="Grupo_u" d="M281.4035339,7.4412012v16.0718193h-4.4236145v-1.9126129
					c-0.6167297,0.6974983-1.3546143,1.2297993-2.2099609,1.5969028c-0.8553772,0.3707752-1.7841492,0.5543289-2.7789917,0.5543289
					c-2.1108398,0-3.7848511-0.6093941-5.0183105-1.8245087c-1.2334595-1.2114429-1.8502197-3.0139256-1.8502197-5.407444V7.4412012
					h4.6585693v8.3920012c0,2.5917549,1.0866394,3.8839626,3.2561951,3.8839626
					c1.1159973,0,2.0117493-0.3634338,2.6872253-1.0902996c0.6791382-0.7268658,1.0168762-1.8061523,1.0168762-3.2415295V7.4412012
					H281.4035339z"/>
				<path id="Grupo_p" d="M299.3108521,8.2304754c1.2224731,0.6864843,2.1842651,1.6556396,2.8817749,2.9001226
					s1.0462341,2.6908741,1.0462341,4.3465137c0,1.651968-0.3487244,3.1020298-1.0462341,4.3465137
					c-0.6975098,1.244482-1.6593018,2.2099667-2.8817749,2.896452c-1.2261047,0.6864834-2.5844116,1.0315628-4.0785217,1.0315628
					c-2.052124,0-3.6673584-0.6461048-4.8421021-1.9419823v7.499939h-4.6585388V7.4412012h4.4492798v1.8502054
					c1.1564026-1.3949962,2.8414001-2.092494,5.0513611-2.092494
					C296.7264404,7.1989126,298.0847473,7.5439906,299.3108521,8.2304754z M297.368866,18.7186413
					c0.7635803-0.8076286,1.1490479-1.8869152,1.1490479-3.2415295s-0.3854675-2.4375715-1.1490479-3.2415304
					c-0.7672424-0.8076286-1.747406-1.2114429-2.9441528-1.2114429c-1.1930847,0-2.1769409,0.4038143-2.9441833,1.2114429
					c-0.7635803,0.8039589-1.1490479,1.8869162-1.1490479,3.2415304s0.3854675,2.4339008,1.1490479,3.2415295
					c0.7672424,0.8039589,1.7510986,1.2077732,2.9441833,1.2077732
					C295.62146,19.9264145,296.6016235,19.5226002,297.368866,18.7186413z"/>
				<path id="Grupo_o" d="M309.4356079,22.6907082c-1.3436279-0.7085114-2.3935242-1.6886787-3.1497803-2.9441757
					c-0.7598877-1.2518253-1.1380005-2.6761894-1.1380005-4.2694206s0.3781128-3.0175962,1.1380005-4.2730923
					c0.7562561-1.255497,1.8061523-2.2356644,3.1497803-2.9441757c1.3435974-0.7048402,2.8634033-1.0609312,4.5557556-1.0609312
					s3.2084961,0.356091,4.5410767,1.0609312c1.3362427,0.7085114,2.3788147,1.6886787,3.1387329,2.9441757
					c0.7562256,1.255496,1.1343689,2.6798601,1.1343689,4.2730923s-0.3781433,3.0175953-1.1343689,4.2694206
					c-0.7599182,1.255497-1.8024902,2.2356644-3.1387329,2.9441757c-1.3325806,0.7085114-2.8487244,1.0609322-4.5410767,1.0609322
					S310.7792053,23.3992195,309.4356079,22.6907082z M316.9355469,18.7186413
					c0.7672424-0.8076286,1.1490173-1.8869152,1.1490173-3.2415295s-0.3817749-2.4375715-1.1490173-3.2415304
					c-0.7672729-0.8076286-1.7474365-1.2114429-2.9441833-1.2114429c-1.1930847,0-2.180603,0.4038143-2.9552002,1.2114429
					c-0.7782593,0.8039589-1.1673889,1.8869162-1.1673889,3.2415304s0.3891296,2.4339008,1.1673889,3.2415295
					c0.7745972,0.8039589,1.7621155,1.2077732,2.9552002,1.2077732
					C315.1881104,19.9264145,316.1682739,19.5226002,316.9355469,18.7186413z"/>
			</g>
			<g id="de">
				<path id="de_d" d="M351.2634277,1.3436012v22.1694202h-4.4529724v-1.8538761
					c-1.1563721,1.3949966-2.8266907,2.092495-5.0183105,2.092495c-1.5161438,0-2.885437-0.3377361-4.1078796-1.01688
					c-1.2261353-0.6754704-2.1879578-1.640955-2.8817749-2.896452c-0.6975098-1.2554951-1.0462341-2.7092285-1.0462341-4.3611965
					c0-1.6556396,0.3487244-3.1093721,1.0462341-4.3611975c0.6938171-1.255497,1.6556396-2.2209806,2.8817749-2.9001236
					c1.2224426-0.6754713,2.5917358-1.0168781,4.1078796-1.0168781c2.052124,0,3.65271,0.6497746,4.809082,1.9419813V1.3436012
					H351.2634277z M345.5256042,18.7186413c0.7782593-0.8076286,1.1637268-1.8869152,1.1637268-3.2415295
					s-0.3854675-2.4375715-1.1637268-3.2415304c-0.7782593-0.8076286-1.7510986-1.2114429-2.9258118-1.2114429
					c-1.1967773,0-2.1842651,0.4038143-2.9588623,1.2114429c-0.7782593,0.8039589-1.1673889,1.8869162-1.1673889,3.2415304
					s0.3891296,2.4339008,1.1673889,3.2415295c0.7745972,0.8039589,1.762085,1.2077732,2.9588623,1.2077732
					C343.7745056,19.9264145,344.747345,19.5226002,345.5256042,18.7186413z"/>
				<path id="de_e" d="M371.2155457,16.7913437h-12.1584778c0.2202454,0.994854,0.7378845,1.7804565,1.5528564,2.3604813
					c0.818634,0.5763531,1.8318481,0.8663654,3.0469666,0.8663654c0.8369751,0,1.5785217-0.124815,2.228302-0.3744469
					c0.6461182-0.24963,1.2481689-0.6424313,1.8061523-1.1820755l2.4779663,2.6908741
					c-1.5124817,1.7327309-3.7224426,2.5990982-6.6299133,2.5990982c-1.8134766,0-3.4177246-0.3524208-4.8090515-1.0609322
					c-1.394989-0.7085114-2.4706116-1.6886787-3.2268372-2.9441757c-0.7599182-1.2518253-1.138031-2.6761894-1.138031-4.2694206
					c0-1.5748768,0.3744507-2.9918995,1.1233215-4.2584085c0.7452393-1.2628384,1.7694397-2.2503481,3.076355-2.9588594
					c1.3032227-0.7048402,2.7642822-1.0609312,4.375885-1.0609312c1.5748596,0,2.9955444,0.3414068,4.2730713,1.0168781
					c1.2738647,0.679143,2.2723694,1.6482983,3.0029297,2.9148073c0.7268677,1.2628384,1.0903015,2.7312555,1.0903015,4.4052505
					C371.3073425,15.5945845,371.274292,16.0130844,371.2155457,16.7913437z M360.312561,11.6225176
					c-0.7158508,0.5983801-1.1563721,1.4133511-1.3142395,2.4485846h7.9147644
					c-0.1578369-1.0168781-0.594696-1.8281784-1.3142395-2.4338999c-0.7158508-0.6057224-1.5932312-0.9104185-2.6284485-0.9104185
					C361.9168091,10.7267838,361.0284119,11.0241385,360.312561,11.6225176z"/>
			</g>
			<g id="usuários">
				<path id="usuários_u_1" d="M398.5391235,7.4412012v16.0718193h-4.4236145v-1.9126129
					c-0.6167297,0.6974983-1.3546143,1.2297993-2.2099609,1.5969028c-0.8553467,0.3707752-1.7841187,0.5543289-2.7789917,0.5543289
					c-2.1108398,0-3.7848206-0.6093941-5.0183105-1.8245087c-1.2334595-1.2114429-1.8501892-3.0139256-1.8501892-5.407444V7.4412012
					h4.6585388v8.3920012c0,2.5917549,1.0866394,3.8839626,3.2562256,3.8839626
					c1.1159973,0,2.0117188-0.3634338,2.6871948-1.0902996c0.6791382-0.7268658,1.0168762-1.8061523,1.0168762-3.2415295V7.4412012
					H398.5391235z"/>
				<path id="usuários_s_1" d="M404.3650513,23.2597198c-1.2738342-0.3303947-2.2907104-0.7415504-3.0469666-1.2408123l1.5528564-3.34799
					c0.7158508,0.4588814,1.5822144,0.8333263,2.5990906,1.1233387c1.0168762,0.2863407,2.0117493,0.4331837,2.9882507,0.4331837
					c1.971344,0,2.9551697-0.4882488,2.9551697-1.4647465c0-0.4588795-0.2679749-0.7856026-0.8039551-0.9875107
					c-0.5396423-0.1982346-1.3656311-0.3671036-2.4816284-0.5066032c-1.3142395-0.1982365-2.4008484-0.429512-3.2561951-0.6864853
					c-0.8553772-0.260643-1.5969238-0.7195234-2.2246704-1.3766394c-0.6277466-0.6571169-0.9397888-1.5932322-0.9397888-2.8083467
					c0-1.0132084,0.2937012-1.9162846,0.881073-2.7018871c0.5873413-0.7856026,1.4427185-1.3986664,2.56604-1.8391919
					c1.1270142-0.4368539,2.4559326-0.6571164,3.9904175-0.6571164c1.1343689,0,2.2650452,0.1248155,3.3920593,0.3744464
					c1.1233215,0.2496309,2.0557861,0.5947089,2.789978,1.0315623l-1.5528564,3.3149509
					c-1.4133301-0.7966166-2.9551697-1.1930885-4.6291809-1.1930885c-0.9948425,0-1.7437439,0.1394997-2.2393188,0.418499
					c-0.4992676,0.2789984-0.7489014,0.6350899-0.7489014,1.0756149c0,0.4955902,0.2679749,0.8443394,0.8076172,1.0425758
					c0.5359802,0.2019072,1.3950195,0.3891306,2.5697327,0.5690117c1.3142395,0.2202625,2.3898621,0.4552088,3.2268677,0.701169
					c0.833313,0.24963,1.5601807,0.7048397,2.180603,1.3619556c0.6167297,0.6571169,0.9250793,1.5712061,0.9250793,2.7459402
					c0,0.9985218-0.2973328,1.8832436-0.8957214,2.6615047c-0.5983887,0.7745895-1.4684143,1.3766403-2.6138,1.8061523
					c-1.1453552,0.4258404-2.5072937,0.6424332-4.0785217,0.6424332
					C406.9421387,23.7516403,405.638916,23.5864429,404.3650513,23.2597198z"/>
				<path id="usuários_u_2" d="M434.9264832,7.4412012v16.0718193h-4.4236145v-1.9126129
					c-0.6167297,0.6974983-1.3546143,1.2297993-2.2099609,1.5969028c-0.8553467,0.3707752-1.7841187,0.5543289-2.7789917,0.5543289
					c-2.1108398,0-3.7848206-0.6093941-5.0183105-1.8245087c-1.2334595-1.2114429-1.8501892-3.0139256-1.8501892-5.407444V7.4412012
					h4.6585388v8.3920012c0,2.5917549,1.0866394,3.8839626,3.2562256,3.8839626
					c1.1159973,0,2.0117188-0.3634338,2.6871948-1.0902996c0.6791382-0.7268658,1.0168762-1.8061523,1.0168762-3.2415295V7.4412012
					H434.9264832z"/>
				<path id="usuários_á" d="M451.4718628,8.9793682c1.3362732,1.1857462,2.0043945,2.9698725,2.0043945,5.3597202v9.173933h-4.3648682
					v-2.0007172c-0.8737183,1.4904423-2.5073242,2.239336-4.8971863,2.239336c-1.2371216,0-2.3053894-0.2092495-3.2121582-0.6277485
					c-0.9067383-0.418499-1.5968933-0.9948521-2.0777893-1.7327328c-0.4772339-0.7378788-0.7158508-1.5748768-0.7158508-2.5109921
					c0-1.4941139,0.5616455-2.668848,1.6886597-3.5241995c1.1233521-0.8553534,2.8634338-1.2848654,5.2128906-1.2848654h3.704071
					c0-1.0168781-0.3083496-1.7951393-0.9251099-2.3457956c-0.6167297-0.5469847-1.5455017-0.8186417-2.7789612-0.8186417
					c-0.8553467,0-1.699707,0.1321573-2.5256958,0.4001436c-0.8259583,0.271657-1.5271301,0.6350899-2.1034851,1.0902996
					l-1.6740112-3.2562141c0.8773804-0.6167355,1.9273071-1.0939703,3.1497498-1.4317064
					c1.2261353-0.3377361,2.485321-0.5102749,3.781189-0.5102749
					C448.2266541,7.1989126,450.1392822,7.7936215,451.4718628,8.9793682z M447.4997864,20.0622425
					c0.6167603-0.3707752,1.0535889-0.9104176,1.3142395-1.6299419v-1.6409569h-3.1974792
					c-1.9125977,0-2.8670654,0.6277485-2.8670654,1.8795738c0,0.5983791,0.2349243,1.0719452,0.7011719,1.4206924
					c0.4698792,0.3487492,1.1123047,0.5212879,1.9272766,0.5212879
					C446.1745605,20.6128979,446.8830566,20.4293461,447.4997864,20.0622425z M447.5291748,1.0756152h5.0183105
					l-5.4074402,4.3024607h-3.6416931L447.5291748,1.0756152z"/>
				<path id="usuários_r" d="M464.3939209,7.7972922c0.9471436-0.3964725,2.0374451-0.5983796,3.2709045-0.5983796v4.3024607
					c-0.5176086-0.0367107-0.8663635-0.0587368-1.0462341-0.0587368c-1.3326111,0-2.3788452,0.3744469-3.1350708,1.119668
					c-0.7599182,0.7488928-1.138031,1.8685598-1.138031,3.3626738v7.5880432h-4.6585388V7.4412012h4.4492798V9.559392
					C462.6942444,8.7848024,463.4468079,8.1974363,464.3939209,7.7972922z"/>
				<path id="usuários_i" d="M470.6824341,4.4529734c-0.5359802-0.4992616-0.8076477-1.1159966-0.8076477-1.8538759
					c0-0.7342083,0.2716675-1.3546144,0.8076477-1.8502049C471.2220764,0.2496308,471.9158936,0,472.7749329,0
					c0.8553467,0,1.5528259,0.2386177,2.0888062,0.7195241c0.5396423,0.4772354,0.8076477,1.0719441,0.8076477,1.7914684
					c0,0.7745898-0.2680054,1.417022-0.8076477,1.9272966c-0.5359802,0.5066037-1.2334595,0.7599058-2.0888062,0.7599058
					C471.9158936,5.198195,471.2220764,4.9485641,470.6824341,4.4529734z M470.4438171,7.4412012h4.6585388v16.0718193h-4.6585388
					V7.4412012z"/>
				<path id="usuários_o_1" d="M482.5288696,22.6907082c-1.3435974-0.7085114-2.3935242-1.6886787-3.1497498-2.9441757
					c-0.7598877-1.2518253-1.138031-2.6761894-1.138031-4.2694206s0.3781433-3.0175962,1.138031-4.2730923
					c0.7562256-1.255497,1.8061523-2.2356644,3.1497498-2.9441757c1.3435974-0.7048402,2.8634338-1.0609312,4.5557556-1.0609312
					c1.6923523,0,3.2084961,0.356091,4.5411072,1.0609312c1.3362427,0.7085114,2.3788147,1.6886787,3.1387329,2.9441757
					c0.7562256,1.255496,1.1343384,2.6798601,1.1343384,4.2730923s-0.3781128,3.0175953-1.1343384,4.2694206
					c-0.7599182,1.255497-1.8024902,2.2356644-3.1387329,2.9441757c-1.3326111,0.7085114-2.8487549,1.0609322-4.5411072,1.0609322
					C485.3923035,23.7516403,483.872467,23.3992195,482.5288696,22.6907082z M490.0288086,18.7186413
					c0.7672424-0.8076286,1.1490479-1.8869152,1.1490479-3.2415295s-0.3818054-2.4375715-1.1490479-3.2415304
					c-0.7672424-0.8076286-1.747406-1.2114429-2.9441833-1.2114429c-1.1930847,0-2.1805725,0.4038143-2.9551697,1.2114429
					c-0.7782593,0.8039589-1.1673889,1.8869162-1.1673889,3.2415304s0.3891296,2.4339008,1.1673889,3.2415295
					c0.7745972,0.8039589,1.762085,1.2077732,2.9551697,1.2077732
					C488.2814026,19.9264145,489.2615662,19.5226002,490.0288086,18.7186413z"/>
				<path id="usuários_s_2" d="M500.4986267,23.2597198c-1.2738647-0.3303947-2.290741-0.7415504-3.0469666-1.2408123l1.5528564-3.34799
					c0.7158508,0.4588814,1.5822144,0.8333263,2.5990906,1.1233387c1.0168762,0.2863407,2.0117188,0.4331837,2.9882202,0.4331837
					c1.9713745,0,2.9552002-0.4882488,2.9552002-1.4647465c0-0.4588795-0.2679749-0.7856026-0.8039551-0.9875107
					c-0.5396423-0.1982346-1.3656311-0.3671036-2.4816284-0.5066032c-1.3142395-0.1982365-2.4008484-0.429512-3.2562256-0.6864853
					c-0.8553467-0.260643-1.5968933-0.7195234-2.2246399-1.3766394c-0.6277466-0.6571169-0.9397888-1.5932322-0.9397888-2.8083467
					c0-1.0132084,0.2937012-1.9162846,0.8810425-2.7018871c0.5873718-0.7856026,1.4427185-1.3986664,2.5660706-1.8391919
					c1.1270142-0.4368539,2.4559326-0.6571164,3.9904175-0.6571164c1.1343689,0,2.2650452,0.1248155,3.3920593,0.3744464
					c1.1233215,0.2496309,2.0557556,0.5947089,2.789978,1.0315623l-1.5528564,3.3149509
					c-1.4133606-0.7966166-2.9551697-1.1930885-4.6291809-1.1930885c-0.9948425,0-1.7437439,0.1394997-2.2393188,0.418499
					c-0.4992676,0.2789984-0.7489014,0.6350899-0.7489014,1.0756149c0,0.4955902,0.2679749,0.8443394,0.8076172,1.0425758
					c0.5359802,0.2019072,1.394989,0.3891306,2.5697327,0.5690117c1.3142395,0.2202625,2.3898621,0.4552088,3.2268372,0.701169
					c0.8333435,0.24963,1.5602112,0.7048397,2.180603,1.3619556C511.6916199,16.5527267,512,17.4668159,512,18.6415501
					c0,0.9985218-0.2973633,1.8832436-0.8957214,2.6615047c-0.5983887,0.7745895-1.4684143,1.3766403-2.6138,1.8061523
					c-1.1453552,0.4258404-2.5073242,0.6424332-4.0785217,0.6424332
					C503.0756836,23.7516403,501.7724915,23.5864429,500.4986267,23.2597198z"/>
			</g>
		</g>
		<g id="WMB">
			<polygon id="WMB_W" class="st2" points="148.6858978,140.527298 114.190506,40.5171051 91.5906525,40.5171051 
				58.2851295,139.9321289 25.5743122,40.5171051 0,40.5171051 43.4164925,171.4828949 69.5855103,171.4828949 
				102.2963257,75.0444031 135.0071411,171.4828949 161.1761627,171.4828949 204.5926514,40.5171051 182.5865936,40.5171051 			"/>
			<polygon id="WMB_M" class="st1" points="299.0878601,127.4306259 247.939682,40.5171051 228.312912,40.5171051 
				228.312912,171.4828949 251.5083923,171.4828949 251.5083923,85.7597122 293.7354736,156.6004944 304.4411316,156.6004944 
				346.6677551,85.1645432 346.6677551,171.4828949 369.2676086,171.4828949 369.2676086,40.5171051 349.6408386,40.5171051 			"/>
			<path id="WMB_B" class="st0" d="M488.8054504,103.0234756c10.1105042-5.3574295,16.6527405-14.8824081,16.6527405-28.5742416
				c0-20.8354568-16.6527405-33.9321289-47.579895-33.9321289H397.214325v130.9657898h64.232666
				c33.305542,0,50.553009-13.0966644,50.553009-35.717865C512,118.501503,503.0789185,107.785965,488.8054504,103.0234756z
				 M421.5987549,59.5668297l33.9011536,0.5951691c16.652771,0,26.1685791,5.9530525,26.1685791,17.8589287
				c0,11.906105-9.5158081,17.8589249-26.1685791,17.8589249h-33.9011536V59.5668297z M460.2571411,151.8382263h-38.6583862
				v-37.5038147h38.6583862c18.4373474,0,27.953125,5.9530563,27.953125,19.0497284
				C488.2102661,146.4803467,478.099762,152.4333954,460.2571411,151.8382263z"/>
		</g>
		<g id="Wiki_Movimento_Brasil">
			<g id="Wiki">
				<path id="Wiki_W" d="M91.2986984,184.4194641l-8.9206314,27.2684937h-6.7804108l-5.9984818-18.465332l-6.1930504,18.465332
					h-6.7400322l-8.96101-27.2684937h6.5454674l6.1563339,19.1665039l6.4279938-19.1665039h5.8442993l6.2297592,19.320694
					l6.3508987-19.320694H91.2986984z"/>
				<path id="Wiki_i_1" d="M95.0762024,186.8350067c-0.7011719-0.649765-1.0535889-1.4537354-1.0535889-2.4155426
					s0.352417-1.7657776,1.0535889-2.4155426c0.7011719-0.6497803,1.6115875-0.9728241,2.7275848-0.9728241
					s2.026413,0.3083649,2.7275848,0.9324341c0.7011642,0.6240845,1.0499191,1.4023438,1.0499191,2.3384552
					c0,1.0132141-0.3487549,1.8502045-1.0499191,2.5110016c-0.7011719,0.6644592-1.6115875,0.9948425-2.7275848,0.9948425
					S95.7773743,187.484787,95.0762024,186.8350067z M94.7641602,190.7299805h6.0755768v20.9579773h-6.0755768V190.7299805z"/>
				<path id="Wiki_k" d="M115.4908676,203.4685059l-2.9221497,2.8817596v5.3376923h-6.0755768v-28.905777h6.0755768v16.3618317
					l8.8839188-8.414032h7.2466431l-8.7260742,8.880249l9.5043335,12.0777283h-7.3641129L115.4908676,203.4685059z"/>
				<path id="Wiki_i_2" d="M132.3592987,186.8350067c-0.7011719-0.649765-1.0535889-1.4537354-1.0535889-2.4155426
					s0.352417-1.7657776,1.0535889-2.4155426c0.7011719-0.6497803,1.6115875-0.9728241,2.7275848-0.9728241
					s2.026413,0.3083649,2.7275848,0.9324341c0.7011719,0.6240845,1.0499115,1.4023438,1.0499115,2.3384552
					c0,1.0132141-0.3487396,1.8502045-1.0499115,2.5110016c-0.7011719,0.6644592-1.6115875,0.9948425-2.7275848,0.9948425
					S133.0604706,187.484787,132.3592987,186.8350067z M132.0472565,190.7299805h6.0755768v20.9579773h-6.0755768V190.7299805z"/>
			</g>
			<g id="Movimento">
				<path id="Movimento_M" d="M179.3157806,211.6879578l-0.0366974-16.3618317l-8.0249023,13.480072h-2.8450623l-7.9845123-13.127655
					v16.0094147h-5.9213867v-27.2684937h5.2202148l10.2055054,16.9455261l10.0513-16.9455261h5.1798401l0.0771027,27.2684937
					H179.3157806z"/>
				<path id="Movimento_o_1" d="M195.306839,210.6160126c-1.7510834-0.9214325-3.1203766-2.1989441-4.1078949-3.8362274
					c-0.9875031-1.6372833-1.4794312-3.4911652-1.4794312-5.5726471c0-2.0741425,0.4919281-3.9316864,1.4794312-5.5689697
					c0.9875183-1.6372833,2.3568115-2.9148102,4.1078949-3.8362427c1.7547607-0.9214325,3.7334595-1.3839722,5.9434204-1.3839722
					c2.2062988,0,4.1813202,0.4625397,5.9213867,1.3839722c1.7400818,0.9214325,3.1020355,2.1989594,4.0895538,3.8362427
					c0.9875031,1.6372833,1.4794159,3.4948273,1.4794159,5.5689697c0,2.0814819-0.4919128,3.9353638-1.4794159,5.5726471
					c-0.9875183,1.6372833-2.349472,2.9147949-4.0895538,3.8362274C205.4315796,211.5374451,203.4565582,212,201.2502594,212
					C199.0402985,212,197.0615997,211.5374451,195.306839,210.6160126z M205.0865021,205.4361725
					c0.9985199-1.0535889,1.4977875-2.4595947,1.4977875-4.2290344c0-1.7657776-0.4992676-3.1717834-1.4977875-4.2253723
					c-1.0021973-1.0499115-2.2797241-1.5785522-3.8362427-1.5785522c-1.5601959,0-2.8450623,0.5286407-3.8582611,1.5785522
					c-1.0132141,1.0535889-1.5198059,2.4595947-1.5198059,4.2253723c0,1.7694397,0.5065918,3.1754456,1.5198059,4.2290344
					c1.0131989,1.0499268,2.2980652,1.5785522,3.8582611,1.5785522
					C202.806778,207.0147247,204.0843048,206.4860992,205.0865021,205.4361725z"/>
				<path id="Movimento_v" d="M237.0135498,190.7299805l-8.8435364,20.9579773h-6.273819l-8.8031464-20.9579773h6.2738037
					l5.8039246,14.2583313l5.9984741-14.2583313H237.0135498z"/>
				<path id="Movimento_i" d="M239.8145599,186.8350067c-0.7011719-0.649765-1.0535889-1.4537354-1.0535889-2.4155426
					s0.352417-1.7657776,1.0535889-2.4155426c0.7011566-0.6497803,1.6115875-0.9728241,2.7275848-0.9728241
					s2.026413,0.3083649,2.7275848,0.9324341c0.7011566,0.6240845,1.0499115,1.4023438,1.0499115,2.3384552
					c0,1.0132141-0.3487549,1.8502045-1.0499115,2.5110016c-0.7011719,0.6644592-1.6115875,0.9948425-2.7275848,0.9948425
					S240.5157166,187.484787,239.8145599,186.8350067z M239.5025177,190.7299805h6.0755768v20.9579773h-6.0755768V190.7299805z"/>
				<path id="Movimento_m" d="M284.3222656,192.734375c1.5455017,1.5455017,2.3164368,3.8656006,2.3164368,6.9566193v11.9969635h-6.075592
					v-11.0645142c0-1.659317-0.3450623-2.9001312-1.0352173-3.7187653
					c-0.6864929-0.8186493-1.6666565-1.2261353-2.9405212-1.2261353c-1.4280396,0-2.5587158,0.4588928-3.3883667,1.3803101
					c-0.8296509,0.9214325-1.2444763,2.2944031-1.2444763,4.1115723v10.5175323h-6.0792542v-11.0645142
					c0-3.2966003-1.3252563-4.9449005-3.9720764-4.9449005c-1.4023132,0-2.5220032,0.4588928-3.3516541,1.3803101
					c-0.8296509,0.9214325-1.2481384,2.2944031-1.2481384,4.1115723v10.5175323h-6.0755768v-20.9579773h5.8039093v2.4155426
					c0.7782593-0.8847198,1.7327271-1.5601807,2.8634033-2.026413c1.1306763-0.466217,2.3714905-0.7011566,3.7224426-0.7011566
					c1.4794312,0,2.8157043,0.2936707,4.0124512,0.8773651c1.1930847,0.5837097,2.1549072,1.435379,2.8817749,2.5513763
					c0.8553467-1.0903015,1.9419861-1.9346313,3.252533-2.53302c1.3105774-0.5983734,2.7459412-0.8957214,4.3061218-0.8957214
					C280.6915894,190.4179535,282.7767639,191.1925354,284.3222656,192.734375z"/>
				<path id="Movimento_e" d="M312.7434692,202.9215088h-15.8552246c0.2826538,1.2995605,0.9581299,2.3274384,2.0227356,3.0800018
					s2.3898621,1.1270142,3.9757385,1.1270142c1.0903015,0,2.0557861-0.1615295,2.900116-0.4845734
					c0.8443604-0.3267212,1.6299438-0.8370056,2.3568115-1.5381622l3.2341919,3.5058441
					C309.402832,210.8693237,306.5210571,212,302.7288513,212c-2.3604736,0-4.4529724-0.4625549-6.2701111-1.3839874
					c-1.8171692-0.9214325-3.2195129-2.1989441-4.2070312-3.8362274s-1.4794312-3.4911652-1.4794312-5.5726471
					c0-2.0484467,0.4845886-3.8986511,1.4610901-5.5506134c0.9728088-1.6483002,2.309082-2.9331665,4.0124512-3.854599
					c1.6996765-0.9214325,3.6012878-1.3839722,5.7047729-1.3839722c2.052124,0,3.909668,0.4405212,5.5726624,1.3252411
					c1.6593018,0.8810425,2.9661865,2.1475525,3.9133301,3.7958527c0.947113,1.6519775,1.4206848,3.5645905,1.4206848,5.7488556
					C312.8572693,201.3649902,312.8205566,201.9083099,312.7434692,202.9215088z M298.5218506,196.1851501
					c-0.9324341,0.7782593-1.505127,1.842865-1.714386,3.1938019h10.3266602
					c-0.209259-1.3252411-0.7819519-2.3824921-1.714386-3.1754456c-0.9361267-0.7929382-2.0778198-1.1894226-3.4287415-1.1894226
					C300.6143494,195.0140839,299.4579773,195.4032135,298.5218506,196.1851501z"/>
				<path id="Movimento_n" d="M335.9407654,192.7563934c1.5969238,1.5565338,2.3972168,3.869278,2.3972168,6.9346008v11.9969635h-6.0792542
					v-11.0645142c0-1.659317-0.3634338-2.9001312-1.0903015-3.7187653
					c-0.7268677-0.8186493-1.7804565-1.2261353-3.1571045-1.2261353c-1.5308228,0-2.7532654,0.4735718-3.6600342,1.4207001
					c-0.9104004,0.9471283-1.3656006,2.3568115-1.3656006,4.2253723v10.3633423h-6.075592v-20.9579773h5.8039246v2.4522552
					c0.8039551-0.8810425,1.8061523-1.563858,2.9992371-2.0447693c1.1967468-0.480896,2.5073242-0.7195129,3.9353638-0.7195129
					C332.2440491,190.4179535,334.3438721,191.1962128,335.9407654,192.7563934z"/>
				<path id="Movimento_t" d="M357.3429565,210.6747589c-0.5947266,0.4405212-1.3289185,0.7745819-2.1989441,0.9948425
					C354.2739563,211.8898621,353.3562012,212,352.3980713,212c-2.4963074,0-4.4236145-0.6350861-5.7855835-1.9089355
					c-1.3656311-1.2738647-2.0447693-3.1424103-2.0447693-5.6093597v-8.6085968h-3.2341919v-4.6768951h3.2341919v-5.1027527
					h6.075592v5.1027527h5.2202148v4.6768951h-5.2202148v8.5315094c0,0.8810425,0.2276001,1.563858,0.6828003,2.0447693
					s1.0976562,0.7195282,1.9273071,0.7195282c0.961792,0,1.7804565-0.2606506,2.4559326-0.7782593L357.3429565,210.6747589z"/>
				<path id="Movimento_o_2" d="M364.1417236,210.6160126c-1.7510986-0.9214325-3.1203918-2.1989441-4.1079102-3.8362274
					c-0.9874878-1.6372833-1.4794312-3.4911652-1.4794312-5.5726471c0-2.0741425,0.4919434-3.9316864,1.4794312-5.5689697
					c0.9875183-1.6372833,2.3568115-2.9148102,4.1079102-3.8362427c1.7547607-0.9214325,3.7334595-1.3839722,5.9434204-1.3839722
					c2.2062988,0,4.1813049,0.4625397,5.9213867,1.3839722s3.1020203,2.1989594,4.0895386,3.8362427
					s1.4794312,3.4948273,1.4794312,5.5689697c0,2.0814819-0.4919128,3.9353638-1.4794312,5.5726471
					s-2.3494568,2.9147949-4.0895386,3.8362274S372.2914429,212,370.085144,212
					C367.8751831,212,365.8964844,211.5374451,364.1417236,210.6160126z M373.9213867,205.4361725
					c0.9985046-1.0535889,1.4977722-2.4595947,1.4977722-4.2290344c0-1.7657776-0.4992676-3.1717834-1.4977722-4.2253723
					c-1.0021973-1.0499115-2.2797241-1.5785522-3.8362427-1.5785522c-1.5602112,0-2.8450623,0.5286407-3.8582764,1.5785522
					c-1.0132141,1.0535889-1.5198059,2.4595947-1.5198059,4.2253723c0,1.7694397,0.5065918,3.1754456,1.5198059,4.2290344
					c1.0132141,1.0499268,2.2980652,1.5785522,3.8582764,1.5785522
					C371.6416626,207.0147247,372.9191895,206.4860992,373.9213867,205.4361725z"/>
			</g>
			<g id="Brasil">
				<path id="Brasil_B" d="M420.8999023,199.9810028c0.8810425,1.1563873,1.3252258,2.5770721,1.3252258,4.2657623
					c0,2.3898468-0.928772,4.2290344-2.7863159,5.5139008s-4.5667725,1.9272919-8.1240234,1.9272919H397.214325v-27.2684937
					h13.3222046c3.3222961,0,5.8773499,0.6350861,7.6541443,1.9089355c1.7804565,1.2701874,2.6688232,2.9992523,2.6688232,5.1798401
					c0,1.3252563-0.3193665,2.5073242-0.9544678,3.5462341c-0.6350708,1.0389099-1.5271301,1.8575439-2.6688538,2.4522552
					C418.7963867,198.0023193,420.0151672,198.8246307,420.8999023,199.9810028z M403.4844666,189.1697845v6.428009h6.2738037
					c1.5565186,0,2.7386169-0.2716675,3.542572-0.8186493c0.8076172-0.5433197,1.2077637-1.3472748,1.2077637-2.4118805
					c0-1.0645905-0.4001465-1.8648834-1.2077637-2.3971863c-0.8039551-0.5323029-1.9860535-0.800293-3.542572-0.800293H403.4844666z
					 M414.6077271,206.118988c0.8443298-0.5469818,1.26651-1.3913269,1.26651-2.53302
					c0-2.2613525-1.6740112-3.3883667-5.0256653-3.3883667h-7.3641052v6.7363586h7.3641052
					C412.5115662,206.93396,413.7633972,206.6623077,414.6077271,206.118988z"/>
				<path id="Brasil_r" d="M435.3307495,191.1962128c1.23349-0.5176239,2.6578369-0.7782593,4.2657471-0.7782593v5.6093445
					c-0.6754761-0.0513916-1.1270142-0.0770874-1.3619385-0.0770874c-1.7400818,0-3.1020508,0.4845734-4.0895386,1.4610748
					c-0.9875183,0.9728241-1.4831238,2.4338989-1.4831238,4.3832245v9.8934479h-6.0755615v-20.9579773h5.8039246v2.7642975
					C433.1171265,192.4810791,434.09729,191.7174988,435.3307495,191.1962128z"/>
				<path id="Brasil_a" d="M459.034668,192.734375c1.7400818,1.5455017,2.6101074,3.8766174,2.6101074,6.9933319v11.9602509h-5.6864319
					v-2.6101074C454.8166504,211.0271759,452.687439,212,449.5707397,212c-1.6116028,0-3.0065918-0.2716522-4.1886597-0.8186493
					c-1.1820984-0.5469818-2.0851746-1.2995453-2.7092285-2.2576904c-0.6204224-0.9618073-0.9324646-2.0521088-0.9324646-3.2745667
					c0-1.9456482,0.7305298-3.4801483,2.1989746-4.5961456c1.4684143-1.1159973,3.733429-1.673996,6.7987671-1.673996h4.8310852
					c0-1.3252411-0.4038086-2.3457947-1.2077942-3.0579681c-0.8076172-0.7158508-2.0117188-1.0719452-3.623291-1.0719452
					c-1.1159973,0-2.2136536,0.1762085-3.2929382,0.5249634c-1.0756226,0.352417-1.9933777,0.8259735-2.7459412,1.4206848
					l-2.180603-4.2437286c1.1416931-0.8039551,2.5109863-1.4280243,4.1079102-1.8722229
					c1.5968933-0.4405212,3.2415161-0.6607819,4.9302063-0.6607819
					C454.8019714,190.4179535,457.2945862,191.1925354,459.034668,192.734375z M453.8548279,207.1872711
					c0.8039551-0.4772491,1.3766479-1.1857605,1.714386-2.1218719v-2.1438904h-4.1703186
					c-2.4926147,0-3.7371216,0.8186493-3.7371216,2.4559326c0,0.7782593,0.304718,1.394989,0.914093,1.8502045
					c0.6094055,0.4552155,1.4464111,0.6828156,2.5109863,0.6828156
					C452.1257629,207.9104614,453.0508728,207.6681671,453.8548279,207.1872711z"/>
				<path id="Brasil_s" d="M469.0896606,211.3575745c-1.6629944-0.4295197-2.9882202-0.969162-3.9757385-1.6189423l2.0263977-4.3611908
					c0.9361267,0.5983734,2.0631409,1.082962,3.3883667,1.4610748c1.3252563,0.3744507,2.6248169,0.5653381,3.894989,0.5653381
					c2.5733948,0,3.8582764-0.6387634,3.8582764-1.9089355c0-0.5983887-0.3487549-1.0278931-1.0535889-1.2848663
					c-0.7011719-0.2606506-1.7767944-0.4809113-3.2305298-0.6644592c-1.714386-0.2569733-3.1314087-0.5579987-4.247406-0.8957367
					s-2.085144-0.9361115-2.9037781-1.7914734c-0.8149719-0.859024-1.2261353-2.0778046-1.2261353-3.6636963
					c0-1.321579,0.3818054-2.4963074,1.1490479-3.5242004c0.7672424-1.0242157,1.8832397-1.8245087,3.3516541-2.3971863
					c1.4647522-0.5690155,3.2011414-0.8553467,5.2018738-0.8553467c1.4794312,0,2.9515076,0.1615143,4.4199219,0.4882355
					c1.4684143,0.3230591,2.6798706,0.7709198,3.6416931,1.3436127l-2.0264282,4.3244781
					c-1.842865-1.0388947-3.8545837-1.5601959-6.0351868-1.5601959c-1.2995605,0-2.276062,0.1835632-2.9221497,0.5469971
					c-0.6497803,0.3634338-0.9765015,0.8296509-0.9765015,1.4023285c0,0.6497803,0.352417,1.1049805,1.0535889,1.3619537
					c0.7011719,0.2606506,1.8171692,0.5066071,3.3479919,0.7415619c1.714386,0.2863312,3.1166992,0.5910339,4.2106934,0.9140778
					c1.090271,0.3267365,2.0374146,0.9177704,2.8413696,1.7731171c0.8039551,0.8553619,1.2077637,2.0521088,1.2077637,3.5829468
					c0,1.2995453-0.3891296,2.4559174-1.1673889,3.4691315c-0.7782593,1.0131989-1.9162598,1.7988129-3.4104004,2.3568115
					C478.0139465,211.7210083,476.2445068,212,474.1924133,212C472.4523315,212,470.7489624,211.7870789,469.0896606,211.3575745z"
					/>
				<path id="Brasil_i" d="M488.1350098,186.8350067c-0.7011719-0.649765-1.0535889-1.4537354-1.0535889-2.4155426
					s0.352417-1.7657776,1.0535889-2.4155426c0.7011719-0.6497803,1.6116028-0.9728241,2.7276001-0.9728241
					s2.0263977,0.3083649,2.7275696,0.9324341c0.7011719,0.6240845,1.0499268,1.4023438,1.0499268,2.3384552
					c0,1.0132141-0.3487549,1.8502045-1.0499268,2.5110016c-0.7011719,0.6644592-1.6115723,0.9948425-2.7275696,0.9948425
					S488.8361816,187.484787,488.1350098,186.8350067z M487.8229675,190.7299805h6.075592v20.9579773h-6.075592V190.7299805z"/>
				<path id="Brasil_l" d="M499.5482788,182.7821808h6.075592v28.905777h-6.075592V182.7821808z"/>
			</g>
		</g>
	</g>
</svg>